<mxfile host="app.diagrams.net" agent="Mozilla/5.0 (X11; Linux x86_64) AppleWebKit/537.36 (KHTML, like Gecko) Chrome/128.0.0.0 Safari/537.36" version="24.8.3">
  <diagram id="akuccHLdt60YMGDut_Sv" name="RNN">
    <mxGraphModel dx="2501" dy="2007" grid="1" gridSize="10" guides="1" tooltips="1" connect="1" arrows="1" fold="1" page="1" pageScale="1" pageWidth="827" pageHeight="1169" math="0" shadow="0">
      <root>
        <mxCell id="0" />
        <mxCell id="1" parent="0" />
        <mxCell id="oz-Zjf4VL7ZqyeyUb3L0-3" value="" style="edgeStyle=orthogonalEdgeStyle;rounded=0;orthogonalLoop=1;jettySize=auto;html=1;" parent="1" source="oz-Zjf4VL7ZqyeyUb3L0-1" target="oz-Zjf4VL7ZqyeyUb3L0-2" edge="1">
          <mxGeometry relative="1" as="geometry" />
        </mxCell>
        <mxCell id="oz-Zjf4VL7ZqyeyUb3L0-1" value="Verilerin API üzerinden modelin çalışacağı ortama aktarılması" style="rounded=0;whiteSpace=wrap;html=1;" parent="1" vertex="1">
          <mxGeometry x="160" y="80" width="120" height="60" as="geometry" />
        </mxCell>
        <mxCell id="oz-Zjf4VL7ZqyeyUb3L0-5" value="" style="edgeStyle=orthogonalEdgeStyle;rounded=0;orthogonalLoop=1;jettySize=auto;html=1;" parent="1" source="oz-Zjf4VL7ZqyeyUb3L0-2" target="oz-Zjf4VL7ZqyeyUb3L0-4" edge="1">
          <mxGeometry relative="1" as="geometry" />
        </mxCell>
        <mxCell id="oz-Zjf4VL7ZqyeyUb3L0-2" value="Verilerin filtre ve temizleme süreçlerinden geçirilmesi" style="rounded=0;whiteSpace=wrap;html=1;" parent="1" vertex="1">
          <mxGeometry x="160" y="220" width="120" height="60" as="geometry" />
        </mxCell>
        <mxCell id="oz-Zjf4VL7ZqyeyUb3L0-7" value="" style="edgeStyle=orthogonalEdgeStyle;rounded=0;orthogonalLoop=1;jettySize=auto;html=1;" parent="1" source="oz-Zjf4VL7ZqyeyUb3L0-4" target="oz-Zjf4VL7ZqyeyUb3L0-6" edge="1">
          <mxGeometry relative="1" as="geometry" />
        </mxCell>
        <mxCell id="oz-Zjf4VL7ZqyeyUb3L0-4" value="Hedef ve öğrenme süreçleri için özellik verilerin etiketlenmesi" style="rounded=0;whiteSpace=wrap;html=1;" parent="1" vertex="1">
          <mxGeometry x="395" y="220" width="120" height="60" as="geometry" />
        </mxCell>
        <mxCell id="oz-Zjf4VL7ZqyeyUb3L0-9" value="" style="edgeStyle=orthogonalEdgeStyle;rounded=0;orthogonalLoop=1;jettySize=auto;html=1;" parent="1" source="oz-Zjf4VL7ZqyeyUb3L0-6" target="oz-Zjf4VL7ZqyeyUb3L0-8" edge="1">
          <mxGeometry relative="1" as="geometry" />
        </mxCell>
        <mxCell id="oz-Zjf4VL7ZqyeyUb3L0-16" value="Hayır" style="edgeLabel;html=1;align=center;verticalAlign=middle;resizable=0;points=[];" parent="oz-Zjf4VL7ZqyeyUb3L0-9" vertex="1" connectable="0">
          <mxGeometry x="-0.113" y="4" relative="1" as="geometry">
            <mxPoint as="offset" />
          </mxGeometry>
        </mxCell>
        <mxCell id="oz-Zjf4VL7ZqyeyUb3L0-11" value="" style="edgeStyle=orthogonalEdgeStyle;rounded=0;orthogonalLoop=1;jettySize=auto;html=1;" parent="1" source="oz-Zjf4VL7ZqyeyUb3L0-6" target="oz-Zjf4VL7ZqyeyUb3L0-10" edge="1">
          <mxGeometry relative="1" as="geometry" />
        </mxCell>
        <mxCell id="oz-Zjf4VL7ZqyeyUb3L0-15" value="Evet" style="edgeLabel;html=1;align=center;verticalAlign=middle;resizable=0;points=[];" parent="oz-Zjf4VL7ZqyeyUb3L0-11" vertex="1" connectable="0">
          <mxGeometry x="-0.2" y="1" relative="1" as="geometry">
            <mxPoint as="offset" />
          </mxGeometry>
        </mxCell>
        <mxCell id="oz-Zjf4VL7ZqyeyUb3L0-6" value="Veriler kategorik mi?" style="rhombus;whiteSpace=wrap;html=1;rounded=0;" parent="1" vertex="1">
          <mxGeometry x="380" y="370" width="150" height="130" as="geometry" />
        </mxCell>
        <mxCell id="vP-n7IVajZTPAO37nc31-25" value="" style="edgeStyle=none;curved=1;rounded=0;orthogonalLoop=1;jettySize=auto;html=1;fontSize=12;startSize=8;endSize=8;" edge="1" parent="1" source="oz-Zjf4VL7ZqyeyUb3L0-8" target="vP-n7IVajZTPAO37nc31-24">
          <mxGeometry relative="1" as="geometry" />
        </mxCell>
        <mxCell id="oz-Zjf4VL7ZqyeyUb3L0-8" value="Sayısal verilere normalizasyon uygulanması" style="whiteSpace=wrap;html=1;rounded=0;" parent="1" vertex="1">
          <mxGeometry x="610" y="405" width="120" height="60" as="geometry" />
        </mxCell>
        <mxCell id="oz-Zjf4VL7ZqyeyUb3L0-14" style="edgeStyle=orthogonalEdgeStyle;rounded=0;orthogonalLoop=1;jettySize=auto;html=1;entryX=0.5;entryY=0;entryDx=0;entryDy=0;" parent="1" source="oz-Zjf4VL7ZqyeyUb3L0-10" target="oz-Zjf4VL7ZqyeyUb3L0-12" edge="1">
          <mxGeometry relative="1" as="geometry" />
        </mxCell>
        <mxCell id="oz-Zjf4VL7ZqyeyUb3L0-10" value="Kategorik verilere İkili sınıflandırma uygulanması" style="whiteSpace=wrap;html=1;rounded=0;" parent="1" vertex="1">
          <mxGeometry x="160" y="405" width="120" height="60" as="geometry" />
        </mxCell>
        <mxCell id="oz-Zjf4VL7ZqyeyUb3L0-18" value="" style="edgeStyle=orthogonalEdgeStyle;rounded=0;orthogonalLoop=1;jettySize=auto;html=1;" parent="1" source="oz-Zjf4VL7ZqyeyUb3L0-12" target="oz-Zjf4VL7ZqyeyUb3L0-17" edge="1">
          <mxGeometry relative="1" as="geometry" />
        </mxCell>
        <mxCell id="oz-Zjf4VL7ZqyeyUb3L0-12" value="Verinin eğitim, doğrulama ve test olmak üzere 3&#39;e ayrılması" style="whiteSpace=wrap;html=1;rounded=0;" parent="1" vertex="1">
          <mxGeometry x="142.5" y="580" width="155" height="80" as="geometry" />
        </mxCell>
        <mxCell id="oz-Zjf4VL7ZqyeyUb3L0-20" value="" style="edgeStyle=orthogonalEdgeStyle;rounded=0;orthogonalLoop=1;jettySize=auto;html=1;" parent="1" source="oz-Zjf4VL7ZqyeyUb3L0-17" target="oz-Zjf4VL7ZqyeyUb3L0-19" edge="1">
          <mxGeometry relative="1" as="geometry" />
        </mxCell>
        <mxCell id="oz-Zjf4VL7ZqyeyUb3L0-17" value="RNN Modelinin oluşturulması" style="whiteSpace=wrap;html=1;rounded=0;" parent="1" vertex="1">
          <mxGeometry x="160" y="710" width="120" height="60" as="geometry" />
        </mxCell>
        <mxCell id="vP-n7IVajZTPAO37nc31-18" value="" style="edgeStyle=none;curved=1;rounded=0;orthogonalLoop=1;jettySize=auto;html=1;fontSize=12;startSize=8;endSize=8;" edge="1" parent="1" source="oz-Zjf4VL7ZqyeyUb3L0-19" target="vP-n7IVajZTPAO37nc31-17">
          <mxGeometry relative="1" as="geometry" />
        </mxCell>
        <mxCell id="oz-Zjf4VL7ZqyeyUb3L0-19" value="Model performansının MSE ve RMSE istatistiklerine bakılarak değelendirilmesi" style="whiteSpace=wrap;html=1;rounded=0;" parent="1" vertex="1">
          <mxGeometry x="152.5" y="850" width="135" height="70" as="geometry" />
        </mxCell>
        <mxCell id="vP-n7IVajZTPAO37nc31-34" value="" style="edgeStyle=none;curved=1;rounded=0;orthogonalLoop=1;jettySize=auto;html=1;fontSize=12;startSize=8;endSize=8;" edge="1" parent="1" source="oz-Zjf4VL7ZqyeyUb3L0-25" target="vP-n7IVajZTPAO37nc31-33">
          <mxGeometry relative="1" as="geometry" />
        </mxCell>
        <mxCell id="oz-Zjf4VL7ZqyeyUb3L0-25" value="Tahminleme yapılması" style="whiteSpace=wrap;html=1;rounded=0;" parent="1" vertex="1">
          <mxGeometry x="395" y="1010" width="120" height="60" as="geometry" />
        </mxCell>
        <mxCell id="oz-Zjf4VL7ZqyeyUb3L0-27" value="Çıkış" style="ellipse;whiteSpace=wrap;html=1;rounded=0;" parent="1" vertex="1">
          <mxGeometry x="630" y="1140" width="80" height="80" as="geometry" />
        </mxCell>
        <mxCell id="oz-Zjf4VL7ZqyeyUb3L0-31" style="edgeStyle=orthogonalEdgeStyle;rounded=0;orthogonalLoop=1;jettySize=auto;html=1;entryX=0.5;entryY=0;entryDx=0;entryDy=0;" parent="1" source="oz-Zjf4VL7ZqyeyUb3L0-29" target="oz-Zjf4VL7ZqyeyUb3L0-1" edge="1">
          <mxGeometry relative="1" as="geometry" />
        </mxCell>
        <mxCell id="oz-Zjf4VL7ZqyeyUb3L0-29" value="Giriş" style="ellipse;whiteSpace=wrap;html=1;rounded=0;" parent="1" vertex="1">
          <mxGeometry x="180" y="-70" width="80" height="80" as="geometry" />
        </mxCell>
        <mxCell id="vP-n7IVajZTPAO37nc31-1" value="" style="strokeWidth=2;html=1;shape=mxgraph.flowchart.annotation_2;align=left;labelPosition=right;pointerEvents=1;" vertex="1" parent="1">
          <mxGeometry x="40" y="50" width="80" height="120" as="geometry" />
        </mxCell>
        <mxCell id="vP-n7IVajZTPAO37nc31-2" value="" style="strokeWidth=2;html=1;shape=mxgraph.flowchart.annotation_2;align=left;labelPosition=right;pointerEvents=1;" vertex="1" parent="1">
          <mxGeometry x="40" y="210" width="80" height="450" as="geometry" />
        </mxCell>
        <mxCell id="vP-n7IVajZTPAO37nc31-5" value="" style="strokeWidth=2;html=1;shape=mxgraph.flowchart.annotation_2;align=left;labelPosition=right;pointerEvents=1;" vertex="1" parent="1">
          <mxGeometry x="40" y="690" width="80" height="110" as="geometry" />
        </mxCell>
        <mxCell id="vP-n7IVajZTPAO37nc31-7" value="" style="strokeWidth=2;html=1;shape=mxgraph.flowchart.annotation_2;align=left;labelPosition=right;pointerEvents=1;" vertex="1" parent="1">
          <mxGeometry x="40" y="830" width="80" height="110" as="geometry" />
        </mxCell>
        <mxCell id="vP-n7IVajZTPAO37nc31-8" value="" style="strokeWidth=2;html=1;shape=mxgraph.flowchart.annotation_2;align=left;labelPosition=right;pointerEvents=1;" vertex="1" parent="1">
          <mxGeometry x="40" y="970" width="80" height="132.5" as="geometry" />
        </mxCell>
        <mxCell id="vP-n7IVajZTPAO37nc31-11" style="edgeStyle=none;curved=1;rounded=0;orthogonalLoop=1;jettySize=auto;html=1;entryX=1;entryY=0.5;entryDx=0;entryDy=0;fontSize=12;startSize=8;endSize=8;" edge="1" parent="1" source="vP-n7IVajZTPAO37nc31-10" target="oz-Zjf4VL7ZqyeyUb3L0-1">
          <mxGeometry relative="1" as="geometry" />
        </mxCell>
        <mxCell id="vP-n7IVajZTPAO37nc31-10" value="Veri deposundan bilgilerin alınması" style="shape=document;whiteSpace=wrap;html=1;boundedLbl=1;" vertex="1" parent="1">
          <mxGeometry x="395" y="70" width="120" height="80" as="geometry" />
        </mxCell>
        <mxCell id="vP-n7IVajZTPAO37nc31-12" value="Tahminleme" style="text;html=1;align=center;verticalAlign=middle;resizable=0;points=[];autosize=1;strokeColor=none;fillColor=none;fontSize=16;" vertex="1" parent="1">
          <mxGeometry x="-90" y="1025" width="110" height="30" as="geometry" />
        </mxCell>
        <mxCell id="vP-n7IVajZTPAO37nc31-13" value="Model Performansının&amp;nbsp;&lt;div&gt;Ölçülmesi&lt;/div&gt;" style="text;html=1;align=center;verticalAlign=middle;resizable=0;points=[];autosize=1;strokeColor=none;fillColor=none;fontSize=16;" vertex="1" parent="1">
          <mxGeometry x="-130" y="860" width="190" height="50" as="geometry" />
        </mxCell>
        <mxCell id="vP-n7IVajZTPAO37nc31-14" value="Modelin&amp;nbsp;&lt;div&gt;Tasarlanması&lt;/div&gt;" style="text;html=1;align=center;verticalAlign=middle;resizable=0;points=[];autosize=1;strokeColor=none;fillColor=none;fontSize=16;" vertex="1" parent="1">
          <mxGeometry x="-95" y="720" width="120" height="50" as="geometry" />
        </mxCell>
        <mxCell id="vP-n7IVajZTPAO37nc31-15" value="Verilerin Analizi ve&amp;nbsp;&lt;div&gt;Hazır Hale Getirilmesi&lt;/div&gt;" style="text;html=1;align=center;verticalAlign=middle;resizable=0;points=[];autosize=1;strokeColor=none;fillColor=none;fontSize=16;" vertex="1" parent="1">
          <mxGeometry x="-140" y="410" width="180" height="50" as="geometry" />
        </mxCell>
        <mxCell id="vP-n7IVajZTPAO37nc31-16" value="Verilerin&amp;nbsp;&lt;div&gt;Toplanması&lt;/div&gt;" style="text;html=1;align=center;verticalAlign=middle;resizable=0;points=[];autosize=1;strokeColor=none;fillColor=none;fontSize=16;" vertex="1" parent="1">
          <mxGeometry x="-90" y="85" width="110" height="50" as="geometry" />
        </mxCell>
        <mxCell id="vP-n7IVajZTPAO37nc31-19" value="" style="edgeStyle=none;curved=1;rounded=0;orthogonalLoop=1;jettySize=auto;html=1;fontSize=12;startSize=8;endSize=8;" edge="1" parent="1" source="vP-n7IVajZTPAO37nc31-17" target="oz-Zjf4VL7ZqyeyUb3L0-25">
          <mxGeometry relative="1" as="geometry" />
        </mxCell>
        <mxCell id="vP-n7IVajZTPAO37nc31-20" value="Evet" style="edgeLabel;html=1;align=center;verticalAlign=middle;resizable=0;points=[];fontSize=12;" vertex="1" connectable="0" parent="vP-n7IVajZTPAO37nc31-19">
          <mxGeometry x="0.2762" y="3" relative="1" as="geometry">
            <mxPoint x="-3" y="-11" as="offset" />
          </mxGeometry>
        </mxCell>
        <mxCell id="vP-n7IVajZTPAO37nc31-28" value="" style="edgeStyle=none;curved=1;rounded=0;orthogonalLoop=1;jettySize=auto;html=1;fontSize=12;startSize=8;endSize=8;" edge="1" parent="1" source="vP-n7IVajZTPAO37nc31-17" target="vP-n7IVajZTPAO37nc31-27">
          <mxGeometry relative="1" as="geometry" />
        </mxCell>
        <mxCell id="vP-n7IVajZTPAO37nc31-31" value="Hayır" style="edgeLabel;html=1;align=center;verticalAlign=middle;resizable=0;points=[];fontSize=12;" vertex="1" connectable="0" parent="vP-n7IVajZTPAO37nc31-28">
          <mxGeometry x="-0.3292" y="2" relative="1" as="geometry">
            <mxPoint x="14" y="2" as="offset" />
          </mxGeometry>
        </mxCell>
        <mxCell id="vP-n7IVajZTPAO37nc31-17" value="Model&amp;nbsp;&lt;div&gt;yeterli mi?&amp;nbsp;&lt;/div&gt;" style="rhombus;whiteSpace=wrap;html=1;rounded=0;" vertex="1" parent="1">
          <mxGeometry x="401.25" y="826.25" width="107.5" height="117.5" as="geometry" />
        </mxCell>
        <mxCell id="vP-n7IVajZTPAO37nc31-29" value="" style="edgeStyle=none;curved=1;rounded=0;orthogonalLoop=1;jettySize=auto;html=1;fontSize=12;startSize=8;endSize=8;" edge="1" parent="1" source="vP-n7IVajZTPAO37nc31-22" target="oz-Zjf4VL7ZqyeyUb3L0-17">
          <mxGeometry relative="1" as="geometry" />
        </mxCell>
        <mxCell id="vP-n7IVajZTPAO37nc31-22" value="Hiper-parametrelerin optimize edilmesi" style="whiteSpace=wrap;html=1;rounded=0;" vertex="1" parent="1">
          <mxGeometry x="610" y="710" width="120" height="60" as="geometry" />
        </mxCell>
        <mxCell id="vP-n7IVajZTPAO37nc31-26" style="edgeStyle=none;curved=1;rounded=0;orthogonalLoop=1;jettySize=auto;html=1;entryX=1;entryY=0.5;entryDx=0;entryDy=0;fontSize=12;startSize=8;endSize=8;" edge="1" parent="1" source="vP-n7IVajZTPAO37nc31-24" target="oz-Zjf4VL7ZqyeyUb3L0-12">
          <mxGeometry relative="1" as="geometry" />
        </mxCell>
        <mxCell id="vP-n7IVajZTPAO37nc31-24" value="Zaman serilerinin oluşturulması" style="whiteSpace=wrap;html=1;rounded=0;" vertex="1" parent="1">
          <mxGeometry x="610" y="590" width="120" height="60" as="geometry" />
        </mxCell>
        <mxCell id="vP-n7IVajZTPAO37nc31-32" value="" style="edgeStyle=none;curved=1;rounded=0;orthogonalLoop=1;jettySize=auto;html=1;fontSize=12;startSize=8;endSize=8;" edge="1" parent="1" source="vP-n7IVajZTPAO37nc31-27" target="vP-n7IVajZTPAO37nc31-22">
          <mxGeometry relative="1" as="geometry" />
        </mxCell>
        <mxCell id="vP-n7IVajZTPAO37nc31-27" value="Katman büyüklüklerinin değiştirilmesi" style="whiteSpace=wrap;html=1;rounded=0;" vertex="1" parent="1">
          <mxGeometry x="610" y="855" width="120" height="60" as="geometry" />
        </mxCell>
        <mxCell id="vP-n7IVajZTPAO37nc31-35" value="" style="edgeStyle=none;curved=1;rounded=0;orthogonalLoop=1;jettySize=auto;html=1;fontSize=12;startSize=8;endSize=8;" edge="1" parent="1" source="vP-n7IVajZTPAO37nc31-33" target="oz-Zjf4VL7ZqyeyUb3L0-27">
          <mxGeometry relative="1" as="geometry" />
        </mxCell>
        <mxCell id="vP-n7IVajZTPAO37nc31-33" value="Anlamlı sonuçların karar verme süreçlerine dahil edilmesi" style="whiteSpace=wrap;html=1;rounded=0;" vertex="1" parent="1">
          <mxGeometry x="610" y="1010" width="120" height="60" as="geometry" />
        </mxCell>
      </root>
    </mxGraphModel>
  </diagram>
</mxfile>
